<?xml version="1.0" encoding="UTF-8" standalone="no"?>
<!-- Created with Inkscape (http://www.inkscape.org/) -->

<svg
   width="55.011372mm"
   height="55.011372mm"
   viewBox="0 0 55.011372 55.011372"
   version="1.1"
   id="svg1"
   inkscape:export-filename="info.svg"
   inkscape:export-xdpi="96"
   inkscape:export-ydpi="96"
   xmlns:inkscape="http://www.inkscape.org/namespaces/inkscape"
   xmlns:sodipodi="http://sodipodi.sourceforge.net/DTD/sodipodi-0.dtd"
   xmlns="http://www.w3.org/2000/svg"
   xmlns:svg="http://www.w3.org/2000/svg">
  <sodipodi:namedview
     id="namedview1"
     pagecolor="#505050"
     bordercolor="#ffffff"
     borderopacity="1"
     inkscape:showpageshadow="0"
     inkscape:pageopacity="0"
     inkscape:pagecheckerboard="1"
     inkscape:deskcolor="#505050"
     inkscape:document-units="mm">
    <inkscape:page
       x="0"
       y="0"
       width="55.011372"
       height="55.011372"
       id="page2"
       margin="0"
       bleed="0" />
  </sodipodi:namedview>
  <defs
     id="defs1" />
  <g
     inkscape:label="Layer 1"
     inkscape:groupmode="layer"
     id="layer1">
    <path
       id="path1"
       style="fill:none;stroke:#ffffff;stroke-width:3.96875;stroke-linecap:square;stroke-miterlimit:3.6"
       d="M 53.026997,27.505686 A 25.521311,25.521311 0 0 1 27.505686,53.026997 25.521311,25.521311 0 0 1 1.984375,27.505686 25.521311,25.521311 0 0 1 27.505686,1.984375 25.521311,25.521311 0 0 1 53.026997,27.505686 Z" />
    <path
       d="m 32.047839,44.853737 h -10.30702 v -1.426129 q 0.496984,-0.04322 1.015577,-0.08643 0.5402,-0.04322 0.929144,-0.172864 0.605024,-0.194472 0.885928,-0.669848 0.302512,-0.496984 0.302512,-1.274872 V 28.064315 q 0,-0.691457 -0.32412,-1.253265 -0.302512,-0.583416 -0.86432,-0.97236 -0.410552,-0.259296 -1.18844,-0.43216 -0.777889,-0.194472 -1.426129,-0.237688 v -1.404521 l 7.519587,-0.475376 0.302512,0.302512 v 17.372838 q 0,0.756281 0.280904,1.253265 0.302512,0.496984 0.929144,0.734672 0.475377,0.194472 0.929145,0.32412 0.453768,0.10804 1.015576,0.151256 z M 29.32523,14.88343 q 0,1.231656 -0.821104,2.1608 -0.799497,0.907537 -1.987937,0.907537 -1.102008,0 -1.923113,-0.86432 -0.799496,-0.885929 -0.799496,-2.009545 0,-1.188441 0.799496,-2.074369 0.821105,-0.885928 1.923113,-0.885928 1.231656,0 2.009545,0.842712 0.799496,0.821104 0.799496,1.923113 z"
       id="text1"
       style="font-size:44.2532px;font-family:Georgia;-inkscape-font-specification:'Georgia, @wght=700';font-variation-settings:'wght' 700;fill:#ffffff;stroke-width:7.41037;stroke-linecap:square;stroke-miterlimit:3.6"
       transform="scale(1.0356291,0.96559666)"
       aria-label="i" />
  </g>
</svg>
