<?xml version="1.0" encoding="UTF-8" standalone="no"?>
<!-- Created with Inkscape (http://www.inkscape.org/) -->

<svg
   width="50.799999mm"
   height="50.799999mm"
   viewBox="0 0 50.799999 50.799999"
   version="1.1"
   id="svg1"
   inkscape:version="1.4 (86a8ad7, 2024-10-11)"
   sodipodi:docname="pter_icon.svg"
   inkscape:export-batch-path="C:\Users\Akarsh\Documents\Inkscape"
   inkscape:export-batch-name="pter_icon_"
   xmlns:inkscape="http://www.inkscape.org/namespaces/inkscape"
   xmlns:sodipodi="http://sodipodi.sourceforge.net/DTD/sodipodi-0.dtd"
   xmlns:xlink="http://www.w3.org/1999/xlink"
   xmlns="http://www.w3.org/2000/svg"
   xmlns:svg="http://www.w3.org/2000/svg">
  <sodipodi:namedview
     id="namedview1"
     pagecolor="#505050"
     bordercolor="#ffffff"
     borderopacity="1"
     inkscape:showpageshadow="0"
     inkscape:pageopacity="0"
     inkscape:pagecheckerboard="1"
     inkscape:deskcolor="#505050"
     inkscape:document-units="mm"
     inkscape:zoom="0.71370863"
     inkscape:cx="152.02282"
     inkscape:cy="596.18167"
     inkscape:window-width="2560"
     inkscape:window-height="1351"
     inkscape:window-x="-9"
     inkscape:window-y="-9"
     inkscape:window-maximized="1"
     inkscape:current-layer="layer1">
    <inkscape:page
       x="0"
       y="0"
       width="50.799999"
       height="50.799999"
       id="page1"
       margin="0"
       bleed="0" />
  </sodipodi:namedview>
  <defs
     id="defs1">
    <linearGradient
       id="linearGradient15"
       inkscape:collect="always">
      <stop
         style="stop-color:#2b233a;stop-opacity:1;"
         offset="0.02829268"
         id="stop15" />
      <stop
         style="stop-color:#333240;stop-opacity:1;"
         offset="0.20390244"
         id="stop17" />
      <stop
         style="stop-color:#4b5471;stop-opacity:1;"
         offset="1"
         id="stop16" />
    </linearGradient>
    <inkscape:path-effect
       effect="fillet_chamfer"
       id="path-effect11"
       is_visible="true"
       lpeversion="1"
       nodesatellites_param="F,0,0,1,0,5.2073968,0,1 @ F,0,1,1,0,5.2073968,0,1 @ F,0,1,1,0,5.2073968,0,1 @ F,0,1,1,0,5.2073968,0,1"
       radius="0"
       unit="px"
       method="auto"
       mode="F"
       chamfer_steps="1"
       flexible="false"
       use_knot_distance="true"
       apply_no_radius="true"
       apply_with_radius="true"
       only_selected="false"
       hide_knots="false" />
    <inkscape:path-effect
       effect="fillet_chamfer"
       id="path-effect9"
       is_visible="true"
       lpeversion="1"
       nodesatellites_param="F,0,0,1,0,5.2073968,0,1 @ F,0,1,1,0,5.2073968,0,1 @ F,0,1,1,0,5.2073968,0,1 @ F,0,1,1,0,5.2073968,0,1"
       radius="0"
       unit="px"
       method="auto"
       mode="F"
       chamfer_steps="1"
       flexible="false"
       use_knot_distance="true"
       apply_no_radius="true"
       apply_with_radius="true"
       only_selected="false"
       hide_knots="false" />
    <inkscape:path-effect
       effect="fillet_chamfer"
       id="path-effect7"
       is_visible="true"
       lpeversion="1"
       nodesatellites_param="F,0,0,1,0,5.2073968,0,1 @ F,0,1,1,0,5.2073968,0,1 @ F,0,1,1,0,5.2073968,0,1 @ F,0,1,1,0,5.2073968,0,1"
       radius="0"
       unit="px"
       method="auto"
       mode="F"
       chamfer_steps="1"
       flexible="false"
       use_knot_distance="true"
       apply_no_radius="true"
       apply_with_radius="true"
       only_selected="false"
       hide_knots="false" />
    <inkscape:path-effect
       effect="fillet_chamfer"
       id="path-effect4"
       is_visible="true"
       lpeversion="1"
       nodesatellites_param="F,0,0,1,0,5.2073968,0,1 @ F,0,1,1,0,5.2073968,0,1 @ F,0,1,1,0,5.2073968,0,1 @ F,0,1,1,0,5.2073968,0,1"
       radius="0"
       unit="px"
       method="auto"
       mode="F"
       chamfer_steps="1"
       flexible="false"
       use_knot_distance="true"
       apply_no_radius="true"
       apply_with_radius="true"
       only_selected="false"
       hide_knots="false" />
    <linearGradient
       inkscape:collect="always"
       xlink:href="#linearGradient15"
       id="linearGradient16"
       x1="1.984375"
       y1="1.984375"
       x2="48.815624"
       y2="48.815624"
       gradientUnits="userSpaceOnUse" />
  </defs>
  <g
     inkscape:label="Layer 1"
     inkscape:groupmode="layer"
     id="layer1">
    <g
       id="main_192x192">
      <path
         id="path6"
         d="M 7.1917718,1.984375 H 43.608227 a 5.2073968,5.2073968 45 0 1 5.207397,5.2073968 V 43.608227 a 5.2073968,5.2073968 135 0 1 -5.207397,5.207397 H 7.1917718 A 5.2073968,5.2073968 45 0 1 1.984375,43.608227 V 7.1917718 A 5.2073968,5.2073968 135 0 1 7.1917718,1.984375 Z"
         style="fill:url(#linearGradient16);fill-opacity:1;stroke:none;stroke-width:3.96875;stroke-linecap:square;stroke-miterlimit:3.6;stroke-dasharray:none"
         inkscape:path-effect="#path-effect7"
         inkscape:original-d="M 1.984375,1.984375 H 48.815624 V 48.815624 H 1.984375 Z" />
      <path
         id="rect1"
         d="M 7.1917718,1.984375 H 43.608227 a 5.2073968,5.2073968 45 0 1 5.207397,5.2073968 V 43.608227 a 5.2073968,5.2073968 135 0 1 -5.207397,5.207397 H 7.1917718 A 5.2073968,5.2073968 45 0 1 1.984375,43.608227 V 7.1917718 A 5.2073968,5.2073968 135 0 1 7.1917718,1.984375 Z"
         style="fill:none;fill-opacity:0.0859277;stroke:#ffffff;stroke-width:3.96875;stroke-linecap:square;stroke-miterlimit:3.6;stroke-dasharray:none"
         inkscape:path-effect="#path-effect4"
         inkscape:original-d="M 1.984375,1.984375 H 48.815624 V 48.815624 H 1.984375 Z" />
      <path
         d="m 39.593033,98.62667 v 16.54984 H 34.463192 V 71.38966 h 12.030697 q 7.022996,0 10.870377,3.419894 3.877915,3.419893 3.877915,9.648985 0,6.229092 -4.305402,10.198612 -4.274867,3.969519 -11.572676,3.969519 z m 0,-22.595726 v 17.954442 h 5.374118 q 5.313049,0 8.091713,-2.412247 2.809198,-2.442781 2.809198,-6.870322 0,-8.671873 -10.259681,-8.671873 z m 43.725784,38.840216 q -1.771016,0.97712 -4.671819,0.97712 -8.213852,0 -8.213852,-9.16043 V 88.183781 h -5.374118 v -4.274868 h 5.374118 v -7.633691 l 5.007702,-1.618342 v 9.252033 h 7.877969 v 4.274868 h -7.877969 v 17.618559 q 0,3.14508 1.068716,4.48861 1.068717,1.34353 3.542033,1.34353 1.893156,0 3.26722,-1.03818 z"
         id="text1"
         style="font-size:62.5352px;font-family:'Segoe UI';-inkscape-font-specification:'Segoe UI, Normal';white-space:pre;fill:#ffffff;stroke-width:5.97009;stroke-linecap:square;stroke-miterlimit:3.6"
         transform="matrix(0.65569467,0,0,0.67398126,-13.214518,-37.697431)"
         aria-label="Pt" />
    </g>
    <g
       id="foreground"
       transform="matrix(2.3559321,0,0,2.3559321,-4.6750528,46.124946)"
       style="fill:none;fill-opacity:1;stroke-width:0.42446">
      <path
         id="path7"
         d="M 7.1917718,1.984375 H 43.608227 a 5.2073968,5.2073968 45 0 1 5.207397,5.2073968 V 43.608227 a 5.2073968,5.2073968 135 0 1 -5.207397,5.207397 H 7.1917718 A 5.2073968,5.2073968 45 0 1 1.984375,43.608227 V 7.1917718 A 5.2073968,5.2073968 135 0 1 7.1917718,1.984375 Z"
         style="fill:none;fill-opacity:1;stroke:none;stroke-width:1.68458;stroke-linecap:square;stroke-miterlimit:3.6;stroke-dasharray:none"
         inkscape:original-d="M 1.984375,1.984375 H 48.815624 V 48.815624 H 1.984375 Z"
         inkscape:path-effect="#path-effect9" />
      <path
         d="m 39.593033,98.62667 v 16.54984 H 34.463192 V 71.38966 h 12.030697 q 7.022996,0 10.870377,3.419894 3.877915,3.419893 3.877915,9.648985 0,6.229092 -4.305402,10.198612 -4.274867,3.969519 -11.572676,3.969519 z m 0,-22.595726 v 17.954442 h 5.374118 q 5.313049,0 8.091713,-2.412247 2.809198,-2.442781 2.809198,-6.870322 0,-8.671873 -10.259681,-8.671873 z m 43.725784,38.840216 q -1.771016,0.97712 -4.671819,0.97712 -8.213852,0 -8.213852,-9.16043 V 88.183781 h -5.374118 v -4.274868 h 5.374118 v -7.633691 l 5.007702,-1.618342 v 9.252033 h 7.877969 v 4.274868 h -7.877969 v 17.618559 q 0,3.14508 1.068716,4.48861 1.068717,1.34353 3.542033,1.34353 1.893156,0 3.26722,-1.03818 z"
         id="text11"
         style="font-size:62.5352px;font-family:'Segoe UI';-inkscape-font-specification:'Segoe UI, Normal';white-space:pre;fill:#ffffff;stroke-width:4.14049;stroke-linecap:square;stroke-miterlimit:3.6"
         transform="matrix(0.40129886,0,0,0.41249061,1.7671064,-13.216946)"
         aria-label="Pt" />
      <path
         id="path8"
         d="M 7.1917718,1.984375 H 43.608227 a 5.2073968,5.2073968 45 0 1 5.207397,5.2073968 V 43.608227 a 5.2073968,5.2073968 135 0 1 -5.207397,5.207397 H 7.1917718 A 5.2073968,5.2073968 45 0 1 1.984375,43.608227 V 7.1917718 A 5.2073968,5.2073968 135 0 1 7.1917718,1.984375 Z"
         style="fill:none;fill-opacity:1;stroke:#ffffff;stroke-width:2.80367;stroke-linecap:square;stroke-miterlimit:3.6;stroke-dasharray:none"
         inkscape:path-effect="#path-effect11"
         inkscape:original-d="M 1.984375,1.984375 H 48.815624 V 48.815624 H 1.984375 Z"
         transform="matrix(0.60084892,0,0,0.60084892,10.138437,10.138437)" />
    </g>
  </g>
</svg>
