<svg xmlns="http://www.w3.org/2000/svg" xmlns:xlink="http://www.w3.org/1999/xlink" version="1.1" width="256" height="256" viewBox="0 0 256 256" xml:space="preserve">
<g style="stroke: none; stroke-width: 0; stroke-dasharray: none; stroke-linecap: butt; stroke-linejoin: miter; stroke-miterlimit: 10; fill: none; fill-rule: nonzero; opacity: 1;" transform="translate(1.4065934065934016 1.4065934065934016) scale(2.81 2.81)">
	<path d="M 45 90 L 45 90 C 20.147 90 0 69.853 0 45 v 0 C 0 20.147 20.147 0 45 0 h 0 c 24.853 0 45 20.147 45 45 v 0 C 90 69.853 69.853 90 45 90 z" style="stroke: none; stroke-width: 1; stroke-dasharray: none; stroke-linecap: butt; stroke-linejoin: miter; stroke-miterlimit: 10; fill: rgb(41,49,92); fill-rule: nonzero; opacity: 1;" transform=" matrix(1 0 0 1 0 0) " stroke-linecap="round"/>
	<path d="M 70.292 36.692 c -1.79 0 -3.395 -1.03 -4.218 -2.619 c -0.164 -0.317 -0.336 -0.632 -0.516 -0.944 c -0.18 -0.312 -0.367 -0.619 -0.56 -0.919 c -0.966 -1.507 -1.055 -3.411 -0.159 -4.962 c 1.3 -2.252 0.528 -5.131 -1.723 -6.43 l -6.235 -3.6 c -2.252 -1.3 -5.131 -0.528 -6.43 1.723 l -0.001 0.002 c -0.882 1.527 -2.543 2.427 -4.304 2.341 c -0.766 -0.037 -1.534 -0.038 -2.303 0 c -1.759 0.085 -3.416 -0.817 -4.296 -2.342 l -0.001 -0.001 c -1.3 -2.252 -4.18 -3.023 -6.43 -1.723 l -6.235 3.6 c -2.252 1.3 -3.023 4.179 -1.723 6.43 l 0.001 0.001 c 0.88 1.524 0.833 3.411 -0.12 4.891 c -0.417 0.648 -0.801 1.314 -1.151 1.995 c -0.806 1.569 -2.416 2.557 -4.18 2.557 h -0.002 c -2.6 0 -4.708 2.108 -4.708 4.708 v 7.2 c 0 2.6 2.108 4.708 4.708 4.708 l 0 0 c 1.79 0 3.395 1.03 4.218 2.619 c 0.164 0.316 0.336 0.632 0.516 0.944 c 0.18 0.312 0.367 0.619 0.56 0.919 c 0.966 1.507 1.055 3.411 0.159 4.962 c -1.3 2.252 -0.528 5.131 1.723 6.43 l 6.235 3.6 c 2.252 1.3 5.131 0.528 6.43 -1.723 l 0.001 -0.002 c 0.882 -1.527 2.543 -2.427 4.304 -2.341 c 0.766 0.037 1.534 0.038 2.303 0 c 1.759 -0.085 3.416 0.817 4.296 2.342 l 0.001 0.001 c 1.3 2.252 4.178 3.023 6.43 1.723 l 6.235 -3.6 c 2.252 -1.299 3.023 -4.178 1.723 -6.43 l -0.001 -0.001 c -0.88 -1.524 -0.834 -3.411 0.12 -4.891 c 0.417 -0.648 0.801 -1.314 1.151 -1.995 c 0.806 -1.569 2.416 -2.557 4.18 -2.557 h 0.002 c 2.6 0 4.708 -2.108 4.708 -4.708 v -7.2 C 75 38.799 72.892 36.692 70.292 36.692 z M 51.664 56.545 c -6.377 3.682 -14.531 1.497 -18.212 -4.88 c -3.682 -6.377 -1.497 -14.531 4.88 -18.212 c 6.377 -3.681 14.531 -1.497 18.212 4.88 C 60.226 44.71 58.041 52.864 51.664 56.545 z" style="stroke: none; stroke-width: 1; stroke-dasharray: none; stroke-linecap: butt; stroke-linejoin: miter; stroke-miterlimit: 10; fill: rgb(237,237,237); fill-rule: nonzero; opacity: 1;" transform=" matrix(1 0 0 1 0 0) " stroke-linecap="round"/>
</g>
</svg>